<svg width="20" height="20" viewBox="0 0 20 20" fill="none" xmlns="http://www.w3.org/2000/svg">
<path fill-rule="evenodd" clip-rule="evenodd" d="M13.1434 4.95436L16.3829 2.30218C14.6511 0.864295 12.4263 0 9.99997 0C6.13514 0 2.78297 2.19229 1.11867 5.40106H1.11812C0.40328 6.77798 0 8.34172 0 9.99996C0 11.7148 0.431327 13.3285 1.19176 14.7389L1.19185 14.7389L1.1918 14.739C2.88082 17.8714 6.19179 19.9999 10 19.9999C12.3698 19.9999 14.5467 19.1758 16.2604 17.7983L16.2605 17.7983C18.0225 16.3819 19.2945 14.3802 19.7813 12.0879C19.9247 11.4143 20 10.7159 20 9.99999C20 9.36152 19.9401 8.73679 19.8253 8.13187H15.6451H10.2199V12.0879H15.5671C15.0858 13.3725 14.172 14.4456 13.0028 15.1313L13.0027 15.1313C12.122 15.6483 11.0956 15.9445 10 15.9445C7.45112 15.9445 5.27695 14.3401 4.43246 12.0862L4.43239 12.0863L4.43241 12.0862C4.18847 11.4373 4.0555 10.734 4.05542 9.99996C4.05542 9.3236 4.16862 8.6736 4.37632 8.06809L4.37635 8.06811C5.17854 5.73346 7.39338 4.05546 9.99997 4.05546C11.1543 4.05546 12.2318 4.3846 13.1434 4.95436Z" fill="white" fill-opacity="0.59"/>
</svg>
