<svg id="Layer_1" data-name="Layer 1" xmlns="http://www.w3.org/2000/svg" viewBox="0 0 655.3 415"><defs><style>.cls-1{fill:none;}.cls-2{fill:#fff;}.cls-3{fill:#0a66ac;}</style></defs><title>combanklogo2</title><rect class="cls-1" width="654.58" height="415"/><path class="cls-2" d="M655.29,124.51h-1.58q-304.59,0-609.16,0a18.52,18.52,0,0,0-4.68.63c-6.74,1.81-11.24,6.36-14.58,12.25-2.34,4.12-3.29,8.67-4.23,13.25C18,165.77,14.79,180.86,11.65,196Q6.32,221.51,1,247.06c-.76,3.62-1.4,7.24-.73,11,1.09,6,4.72,9.9,10.17,12.28a30.52,30.52,0,0,0,12.46,2.3q74,0,148,0H653.26c2.35,0,2,.13,2-2V124.51Z" transform="translate(0)"/><path class="cls-3" d="M655.29,124.51V270.57c0,2.15.32,2-2,2H170.93q-74,0-148,0a30.52,30.52,0,0,1-12.46-2.3C5,267.92,1.37,264,.28,258c-.67-3.72,0-7.34.73-11Q6.33,221.52,11.65,196c3.14-15.09,6.32-30.18,9.41-45.28.94-4.58,1.89-9.13,4.23-13.25,3.34-5.89,7.84-10.44,14.58-12.25a18.52,18.52,0,0,1,4.68-.63q304.58,0,609.16,0ZM274.7,177.41l-.38,0L266,219.77c2,0,3.84,0,5.65,0,.24,0,.6-.5.65-.81,1.09-5.93,2.14-11.87,3.21-17.8.3-1.7.63-3.39,1-5.37l11.14,25.6.35,0c3.68-8.39,7.37-16.78,11.12-25.32a6.94,6.94,0,0,1,.31.88q1.13,6.45,2.24,12.91c.51,2.95,1,5.9,1.57,8.84.08.4.42,1.06.67,1.07,1.89.09,3.79.05,5.85.05-2.78-14.23-5.53-28.28-8.28-42.32l-.37,0c-4.39,10.05-8.78,20.09-13.29,30.39Zm-46.09,0-.39.08c-2.74,14-5.49,28.07-8.26,42.28,2,0,3.83,0,5.64,0,.25,0,.62-.57.69-.93,1-5.53,2-11.07,3-16.6.37-2,.75-4,1.13-6l.24,0,11.14,25.61c3.86-8.79,7.58-17.25,11.4-25.93.78,4.46,1.52,8.64,2.25,12.82.58,3.35,1.15,6.7,1.78,10,.08.41.53,1,.83,1,1.81.1,3.64.05,5.69.05-2.79-14.23-5.54-28.29-8.29-42.34h-.38c-4.39,10-8.78,20.06-13.27,30.36Zm348.67,30.25L548.4,177.25V219.7h5.89V192l28.84,30.07.37-.16V199.58c0-6.05,0-12.1,0-18.15,0-1.15-.39-1.51-1.48-1.44a25.64,25.64,0,0,1-3.28,0c-1.15-.08-1.53.27-1.52,1.49,0,8.24,0,16.48,0,24.72ZM178.16,200c-.34,9.94,7.92,20.63,20.7,20.73a20.75,20.75,0,1,0,.07-41.49A20.63,20.63,0,0,0,178.16,200ZM71.21,221.37l.07-.29c-12.18-3.14-18.67-11.18-18.81-23.5s6.4-20.34,19-23.35c-.78-.19-1.16-.32-1.56-.37a43.52,43.52,0,0,0-12.94.2C45.31,176.21,37,185.31,36.3,196a21.51,21.51,0,0,0,6.9,17.84c7,6.55,15.7,7.92,24.84,7.75C69.1,221.53,70.15,221.43,71.21,221.37Zm20.52-47.15c12.28,3,18.7,10.9,18.6,23.33s-6.64,20.3-18.67,23.67a3.7,3.7,0,0,0,1.33.25c1.9,0,3.8,0,5.71,0a35.46,35.46,0,0,0,14.47-3.22,22.78,22.78,0,0,0,5.14-38.35C110.49,173.45,101.39,172.58,91.73,174.22Zm392.19,45.56c3.05,0,6,.07,9,0a28.14,28.14,0,0,0,5.66-.55c7.25-1.68,10.74-8,8.21-14.7a10.4,10.4,0,0,0-5.94-6.11,3.46,3.46,0,0,1,.24-.37c5.44-5.85,3.2-14.51-4.35-16.93-3.66-1.17-7.43-1.1-11.2-1.1-1.68,0-1.69,0-1.69,1.69q0,18.21,0,36.41C483.82,218.62,483.88,219.14,483.92,219.78Zm-120.08,0c-4.15-5.73-8.12-11.21-12.15-16.79l1.33-.49a11.49,11.49,0,0,0,7.28-12.09c-.61-5.45-4.46-9.49-9.81-10-3.67-.33-7.36-.28-11.05-.44-1.08-.05-1.46.28-1.45,1.43,0,12.34,0,24.68,0,37,0,.42,0,.85.07,1.29h6c0-.57.1-1.09.11-1.6,0-4.47,0-8.93,0-13.4a3.41,3.41,0,0,1,.38-1,7.74,7.74,0,0,1,1,.55,2.39,2.39,0,0,1,.44.59q4.92,7,9.86,14c.24.34.61.83.93.85C359,219.8,361.27,219.76,363.84,219.76ZM617.5,180.12c-.73-.06-1.16-.11-1.59-.12-1.7,0-3.41,0-5.11,0a2.7,2.7,0,0,0-2.15.88c-4.07,4.2-8.17,8.36-12.26,12.53-.72.74-1.4,1.51-2.1,2.27l-.27-.22v-1.2c0-4.26,0-8.52,0-12.78,0-1.23-.4-1.56-1.53-1.48a18.15,18.15,0,0,1-3,0c-1.17-.1-1.51.31-1.51,1.5,0,12.3,0,24.6,0,36.9v1.3h6v-1.43c0-4.5,0-9,0-13.52a2.47,2.47,0,0,1,1.34-2.39c.21.24.43.47.63.72,4.27,5.27,8.52,10.54,12.8,15.8.29.36.7.86,1.08.87,2.49.08,5,0,7.78,0-.46-.6-.73-1-1-1.34-5.36-6.47-10.7-13-16.12-19.37-.75-.9-.59-1.34.14-2.07,5.27-5.18,10.49-10.41,15.72-15.62C616.66,181,617,180.69,617.5,180.12ZM546,219.77l-19.43-42.34-19.38,42.35c2.05,0,3.79-.05,5.53,0a1.51,1.51,0,0,0,1.64-1.07c1.08-2.49,2.26-4.94,3.34-7.43a1.51,1.51,0,0,1,1.62-1.09c4.87.05,9.75,0,14.62,0a1.43,1.43,0,0,1,1.54,1c1.11,2.56,2.29,5.1,3.48,7.63.17.36.55.84.86.86C541.73,219.81,543.71,219.77,546,219.77Zm-137.77,0c2.07,0,3.81,0,5.55,0a1.41,1.41,0,0,0,1.56-1c1.09-2.53,2.31-5,3.39-7.54a1.51,1.51,0,0,1,1.65-1.05c4.83,0,9.66,0,14.49,0a1.59,1.59,0,0,1,1.7,1.15c1.09,2.53,2.25,5,3.43,7.52.17.35.56.83.87.85,2,.07,3.94,0,6.17,0-6.49-14.14-12.88-28.05-19.26-42l-.36,0Zm-73.92-24.53h-1.47c-4.22,0-8.44,0-12.66,0-1,0-1.36-.24-1.33-1.28.07-2.35.07-4.71,0-7.06,0-1,.34-1.29,1.33-1.28,4.43,0,8.85,0,13.27,0,1,0,1.42-.23,1.34-1.28a16.75,16.75,0,0,1,0-2.92c.11-1.19-.38-1.52-1.53-1.51q-9.56.06-19.11,0c-1.09,0-1.46.3-1.45,1.44,0,12.34,0,24.68,0,37,0,.42,0,.85.07,1.34,7.18,0,14.2,0,21.21,0,.26,0,.69-.5.72-.8.09-1.05,0-2.11,0-3.16,0-1.66,0-1.67-1.7-1.67-4.26,0-8.53,0-12.79,0-1,0-1.45-.22-1.43-1.35.06-3.53,0-7.06,0-10.59,0-.92.25-1.34,1.24-1.28,1.25.06,2.51,0,3.77,0,3.09,0,6.17,0,9.25,0,.86,0,1.25-.25,1.21-1.19C334.21,198.33,334.26,196.91,334.26,195.25Zm60.88,15.46-.3-.2c-3.14,2.71-6.63,4.61-10.86,4.47a14,14,0,0,1-10.55-5c-4.12-4.76-5.26-12.49-1.35-18.31a14.68,14.68,0,0,1,7.58-6c5.75-1.92,10.79-.37,15.49,3.75,0-2.29-.06-4.19,0-6.08a1.85,1.85,0,0,0-1.21-2,20.48,20.48,0,0,0-14.55-1.39c-8.82,2.24-15.14,9.33-15.74,18.26-.56,8.4,2.91,15.05,10.09,19.46,6.54,4,13.41,4.08,20.27.62.45-.22,1-.74,1.06-1.14C395.19,215,395.14,212.85,395.14,210.71ZM176.06,189.17l.3-.18c0-2,0-4,0-5.92a1.6,1.6,0,0,0-1.06-1.68,20.24,20.24,0,0,0-13.59-1.71c-11.52,2.35-18.64,12.81-16.47,24.19a20.84,20.84,0,0,0,30,14.43,1.63,1.63,0,0,0,1.07-1.68c-.08-1.7,0-3.41,0-5.11a8.37,8.37,0,0,0-.16-1.09c-3.27,2.84-6.77,4.71-11,4.56a14,14,0,0,1-10.61-5.15,15.29,15.29,0,0,1,0-19.88,14,14,0,0,1,8.7-5A14.75,14.75,0,0,1,176.06,189.17ZM74.36,161.73v5q0,24.48,0,49c0,1.54,0,3.09,0,4.63,0,.31.33.87.52.88,1.8.07,3.61,0,5.48,0,0-.62.09-1.06.09-1.5q0-25.95,0-51.89c0-.52,0-1.25-.27-1.5C78.43,164.82,76.52,163.41,74.36,161.73Zm14.07,59.45V161.83c-1.51,1.13-2.74,2.18-4.1,3a4,4,0,0,0-2,4c.1,16.92.06,33.84.06,50.76v1.61Zm379.13-1.46c0-1.46-.08-2.8,0-4.13s-.33-1.53-1.5-1.5c-3,.07-6.09,0-9.13,0-.84,0-1.16-.27-1.11-1.12.07-1,0-2,0-3.05V181.58c0-1.57,0-1.57-1.62-1.58-1,0-1.95.07-2.92,0-1.16-.1-1.51.31-1.5,1.49,0,12.3,0,24.6,0,36.9v1.35Zm-62.24,0c0-.3.08-.53.08-.77q0-18.93,0-37.87c0-.82-.32-1.08-1.07-1.06-1.14,0-2.28,0-3.41,0-1.67,0-1.68,0-1.68,1.7q0,18.21,0,36.41c0,.52.06,1,.1,1.59Z" transform="translate(0)"/><path class="cls-2" d="M274.7,177.41l13.16,30.39c4.51-10.3,8.9-20.34,13.29-30.39l.37,0c2.75,14,5.5,28.09,8.28,42.32-2.06,0-4,0-5.85-.05-.25,0-.59-.67-.67-1.07-.56-2.94-1.06-5.89-1.57-8.84q-1.12-6.47-2.24-12.91a6.94,6.94,0,0,0-.31-.88c-3.75,8.54-7.44,16.93-11.12,25.32l-.35,0-11.14-25.6c-.37,2-.7,3.67-1,5.37-1.07,5.93-2.12,11.87-3.21,17.8,0,.31-.41.8-.65.81-1.81.06-3.63,0-5.65,0l8.28-42.33Z" transform="translate(0)"/><path class="cls-2" d="M228.61,177.41l13.17,30.4c4.49-10.3,8.88-20.33,13.27-30.36h.38c2.75,14.05,5.5,28.11,8.29,42.34-2.05,0-3.88.05-5.69-.05-.3,0-.75-.64-.83-1-.63-3.34-1.2-6.69-1.78-10-.73-4.18-1.47-8.36-2.25-12.82-3.82,8.68-7.54,17.14-11.4,25.93l-11.14-25.61-.24,0c-.38,2-.76,4-1.13,6-1,5.53-2,11.07-3,16.6-.07.36-.44.92-.69.93-1.81.08-3.63,0-5.64,0,2.77-14.21,5.52-28.25,8.26-42.28Z" transform="translate(0)"/><path class="cls-2" d="M577.28,207.66v-1.47c0-8.24,0-16.48,0-24.72,0-1.22.37-1.57,1.52-1.49a25.64,25.64,0,0,0,3.28,0c1.09-.07,1.49.29,1.48,1.44-.06,6,0,12.1,0,18.15v22.33l-.37.16L554.29,192v27.7H548.4V177.25Z" transform="translate(0)"/><path class="cls-2" d="M178.16,200a20.63,20.63,0,0,1,20.77-20.76,20.75,20.75,0,1,1-.07,41.49C186.08,220.6,177.82,209.91,178.16,200Zm20.56,14.87a14.7,14.7,0,0,0,14.85-14.79c.1-8.12-6.44-15-14.17-15.16a15.12,15.12,0,0,0-15.26,14.49C183.81,208,191,215,198.72,214.84Z" transform="translate(0)"/><path class="cls-2" d="M71.21,221.37c-1.06.06-2.11.16-3.17.19-9.14.17-17.85-1.2-24.84-7.75A21.51,21.51,0,0,1,36.3,196c.65-10.66,9-19.76,20.66-21.91a43.52,43.52,0,0,1,12.94-.2c.4,0,.78.18,1.56.37-12.59,3-19.14,10.9-19,23.35s6.63,20.36,18.81,23.5ZM57,177.45c-9.79,2.83-14.22,10.82-14.14,19.52a23.46,23.46,0,0,0,5,14.33,17.36,17.36,0,0,0,8.64,6.23,23.29,23.29,0,0,1-10.9-20.27C45.54,188.46,49.8,182.09,57,177.45Z" transform="translate(0)"/><path class="cls-2" d="M91.73,174.22c9.66-1.64,18.76-.77,26.58,5.69a22.78,22.78,0,0,1-5.14,38.35,35.46,35.46,0,0,1-14.47,3.22c-1.91,0-3.81,0-5.71,0a3.7,3.7,0,0,1-1.33-.25c12-3.37,18.57-11.33,18.67-23.67S104,177.2,91.73,174.22Zm13.81,3.06c17.21,9.93,13.79,33.15.6,40.45a28.59,28.59,0,0,0,5.44-3c7.44-5.93,10.4-17.3,6.86-26.11C116.06,182.64,111.55,179.09,105.54,177.28Z" transform="translate(0)"/><path class="cls-2" d="M483.92,219.78c0-.64-.1-1.16-.1-1.68q0-18.21,0-36.41c0-1.68,0-1.69,1.69-1.69,3.77,0,7.54-.07,11.2,1.1,7.55,2.42,9.79,11.08,4.35,16.93a3.46,3.46,0,0,0-.24.37,10.4,10.4,0,0,1,5.94,6.11c2.53,6.69-1,13-8.21,14.7a28.14,28.14,0,0,1-5.66.55C489.93,219.85,487,219.78,483.92,219.78Zm6.1-5.39c2.21-.14,4.28-.14,6.32-.42a5.61,5.61,0,0,0,2.49-10.3c-2.74-1.75-5.76-1.51-8.81-1.37ZM490,185.5V194c0,3.34,0,3.34,3.4,3a5,5,0,0,0,4.73-4.57c.31-3.53-.78-5.64-3.51-6.33A34.51,34.51,0,0,0,490,185.5Z" transform="translate(0)"/><path class="cls-2" d="M363.84,219.76c-2.57,0-4.82,0-7.07,0-.32,0-.69-.51-.93-.85q-4.95-7-9.86-14a2.39,2.39,0,0,0-.44-.59,7.74,7.74,0,0,0-1-.55,3.41,3.41,0,0,0-.38,1c0,4.47,0,8.93,0,13.4,0,.51-.07,1-.11,1.6h-6c0-.44-.07-.87-.07-1.29,0-12.34,0-24.68,0-37,0-1.15.37-1.48,1.45-1.43,3.69.16,7.38.11,11.05.44,5.35.47,9.2,4.51,9.81,10A11.49,11.49,0,0,1,353,202.48l-1.33.49C355.72,208.55,359.69,214,363.84,219.76ZM344.16,192c0,1.75,0,3.49,0,5.23,0,.57.06,1.15.82,1.05a47,47,0,0,0,6.4-1.07c2.2-.64,3-2.58,3.18-4.73a5.24,5.24,0,0,0-2.5-5.29,12.33,12.33,0,0,0-7.14-1.46c-.27,0-.71.6-.72.93C344.13,188.41,344.16,190.19,344.16,192Z" transform="translate(0)"/><path class="cls-2" d="M617.5,180.12c-.53.57-.84.92-1.17,1.25-5.23,5.21-10.45,10.44-15.72,15.62-.73.73-.89,1.17-.14,2.07,5.42,6.42,10.76,12.9,16.12,19.37.3.36.57.74,1,1.34-2.79,0-5.29,0-7.78,0-.38,0-.79-.51-1.08-.87-4.28-5.26-8.53-10.53-12.8-15.8-.2-.25-.42-.48-.63-.72a2.47,2.47,0,0,0-1.34,2.39c.07,4.51,0,9,0,13.52v1.43h-6v-1.3c0-12.3,0-24.6,0-36.9,0-1.19.34-1.6,1.51-1.5a18.15,18.15,0,0,0,3,0c1.13-.08,1.55.25,1.53,1.48-.08,4.26,0,8.52,0,12.78v1.2l.27.22c.7-.76,1.38-1.53,2.1-2.27,4.09-4.17,8.19-8.33,12.26-12.53a2.7,2.7,0,0,1,2.15-.88c1.7.05,3.41,0,5.11,0C616.34,180,616.77,180.06,617.5,180.12Z" transform="translate(0)"/><path class="cls-2" d="M546,219.77c-2.24,0-4.22,0-6.18,0-.31,0-.69-.5-.86-.86-1.19-2.53-2.37-5.07-3.48-7.63a1.43,1.43,0,0,0-1.54-1c-4.87,0-9.75,0-14.62,0a1.51,1.51,0,0,0-1.62,1.09c-1.08,2.49-2.26,4.94-3.34,7.43a1.51,1.51,0,0,1-1.64,1.07c-1.74-.08-3.48,0-5.53,0l19.38-42.35Zm-13.6-15.3c-1.94-4.41-3.83-8.71-5.82-13.26-2,4.56-3.86,8.86-5.77,13.26Z" transform="translate(0)"/><path class="cls-2" d="M408.18,219.78l19.19-41.95.36,0c6.38,13.91,12.77,27.82,19.26,42-2.23,0-4.21,0-6.17,0-.31,0-.7-.5-.87-.85-1.18-2.49-2.34-5-3.43-7.52a1.59,1.59,0,0,0-1.7-1.15c-4.83.05-9.66,0-14.49,0a1.51,1.51,0,0,0-1.65,1.05c-1.08,2.53-2.3,5-3.39,7.54a1.41,1.41,0,0,1-1.56,1C412,219.74,410.25,219.78,408.18,219.78Zm25.19-15.33-5.82-13.24c-2,4.55-3.83,8.84-5.75,13.24Z" transform="translate(0)"/><path class="cls-2" d="M334.26,195.25c0,1.66-.05,3.08,0,4.49,0,.94-.35,1.2-1.21,1.19-3.08,0-6.16,0-9.25,0-1.26,0-2.52.05-3.77,0-1-.06-1.25.36-1.24,1.28,0,3.53.05,7.06,0,10.59,0,1.13.43,1.36,1.43,1.35,4.26,0,8.53,0,12.79,0,1.7,0,1.7,0,1.7,1.67,0,1.05,0,2.11,0,3.16,0,.3-.46.8-.72.8-7,0-14,0-21.21,0,0-.49-.07-.92-.07-1.34,0-12.34,0-24.68,0-37,0-1.14.36-1.45,1.45-1.44q9.56.06,19.11,0c1.15,0,1.64.32,1.53,1.51a16.75,16.75,0,0,0,0,2.92c.08,1.05-.36,1.29-1.34,1.28-4.42,0-8.84,0-13.27,0-1,0-1.36.24-1.33,1.28.07,2.35.07,4.71,0,7.06,0,1,.34,1.29,1.33,1.28,4.22-.05,8.44,0,12.66,0Z" transform="translate(0)"/><path class="cls-2" d="M395.14,210.71c0,2.14.05,4.28-.05,6.42,0,.4-.61.92-1.06,1.14-6.86,3.46-13.73,3.4-20.27-.62-7.18-4.41-10.65-11.06-10.09-19.46.6-8.93,6.92-16,15.74-18.26A20.48,20.48,0,0,1,394,181.32a1.85,1.85,0,0,1,1.21,2c-.08,1.89,0,3.79,0,6.08-4.7-4.12-9.74-5.67-15.49-3.75a14.68,14.68,0,0,0-7.58,6c-3.91,5.82-2.77,13.55,1.35,18.31A14,14,0,0,0,384,215c4.23.14,7.72-1.76,10.86-4.47Z" transform="translate(0)"/><path class="cls-2" d="M176.06,189.17A14.75,14.75,0,0,0,163.33,185a14,14,0,0,0-8.7,5,15.29,15.29,0,0,0,0,19.88A14,14,0,0,0,165.19,215c4.24.15,7.74-1.72,11-4.56a8.37,8.37,0,0,1,.16,1.09c0,1.7-.05,3.41,0,5.11a1.63,1.63,0,0,1-1.07,1.68,20.84,20.84,0,0,1-30-14.43c-2.17-11.38,4.95-21.84,16.47-24.19a20.24,20.24,0,0,1,13.59,1.71,1.6,1.6,0,0,1,1.06,1.68c-.07,2,0,4,0,5.92Z" transform="translate(0)"/><path class="cls-2" d="M74.36,161.73c2.16,1.68,4.07,3.09,5.88,4.61.3.25.27,1,.27,1.5q0,25.95,0,51.89c0,.44-.05.88-.09,1.5-1.87,0-3.68,0-5.48,0-.19,0-.51-.57-.52-.88-.06-1.54,0-3.09,0-4.63q0-24.5,0-49Z" transform="translate(0)"/><path class="cls-2" d="M88.43,221.18h-6v-1.61c0-16.92,0-33.84-.06-50.76a4,4,0,0,1,2-4c1.36-.84,2.59-1.89,4.1-3Z" transform="translate(0)"/><path class="cls-2" d="M467.56,219.72H449.84v-1.35c0-12.3,0-24.6,0-36.9,0-1.18.34-1.59,1.5-1.49,1,.09,1.95,0,2.92,0,1.62,0,1.62,0,1.62,1.58V210c0,1,.05,2,0,3.05,0,.85.27,1.13,1.11,1.12,3,0,6.09,0,9.13,0,1.17,0,1.59.32,1.5,1.5S467.56,218.26,467.56,219.72Z" transform="translate(0)"/><path class="cls-2" d="M405.32,219.7h-5.95c0-.55-.1-1.07-.1-1.59q0-18.2,0-36.41c0-1.69,0-1.7,1.68-1.7,1.13,0,2.27,0,3.41,0,.75,0,1.07.24,1.07,1.06q0,18.93,0,37.87C405.4,219.17,405.35,219.4,405.32,219.7Z" transform="translate(0)"/><path class="cls-3" d="M198.72,214.84c-7.72.18-14.91-6.89-14.58-15.46a15.12,15.12,0,0,1,15.26-14.49c7.73.21,14.27,7,14.17,15.16A14.7,14.7,0,0,1,198.72,214.84Z" transform="translate(0)"/><path class="cls-3" d="M57,177.45c-7.23,4.64-11.49,11-11.41,19.81a23.29,23.29,0,0,0,10.9,20.27,17.36,17.36,0,0,1-8.64-6.23,23.46,23.46,0,0,1-5-14.33C42.81,188.27,47.24,180.28,57,177.45Z" transform="translate(0)"/><path class="cls-3" d="M105.54,177.28c6,1.81,10.52,5.36,12.9,11.29,3.54,8.81.58,20.18-6.86,26.11a28.59,28.59,0,0,1-5.44,3C119.33,210.43,122.75,187.21,105.54,177.28Z" transform="translate(0)"/><path class="cls-3" d="M490,214.39V202.3c3.05-.14,6.07-.38,8.81,1.37a5.61,5.61,0,0,1-2.49,10.3C494.3,214.25,492.23,214.25,490,214.39Z" transform="translate(0)"/><path class="cls-3" d="M490,185.5a34.51,34.51,0,0,1,4.62.57c2.73.69,3.82,2.8,3.51,6.33a5,5,0,0,1-4.73,4.57c-3.4.36-3.4.36-3.4-3Z" transform="translate(0)"/><path class="cls-3" d="M344.16,192c0-1.78,0-3.56,0-5.34,0-.33.45-.91.72-.93a12.33,12.33,0,0,1,7.14,1.46,5.24,5.24,0,0,1,2.5,5.29c-.17,2.15-1,4.09-3.18,4.73a47,47,0,0,1-6.4,1.07c-.76.1-.82-.48-.82-1.05C344.17,195.46,344.16,193.72,344.16,192Z" transform="translate(0)"/><path class="cls-3" d="M532.35,204.47H520.76c1.91-4.4,3.78-8.7,5.77-13.26C528.52,195.76,530.41,200.06,532.35,204.47Z" transform="translate(0)"/><path class="cls-3" d="M433.37,204.45H421.8c1.92-4.4,3.78-8.69,5.75-13.24Z" transform="translate(0)"/></svg>