<svg id="Layer_1" data-name="Layer 1" xmlns="http://www.w3.org/2000/svg" viewBox="0 0 654.58 415"><defs><style>.cls-1{fill:none;}.cls-2{fill:#0194da;}</style></defs><title>combanklogo1</title><rect class="cls-1" width="654.58" height="415"/><path class="cls-2" d="M179.75,300,198,342.11,216.38,300l.52,0,11.45,58.61c-2.85,0-5.48.06-8.1-.07-.34,0-.82-.93-.92-1.48-.77-4.08-1.47-8.16-2.18-12.25q-1.54-8.94-3.1-17.88a10.46,10.46,0,0,0-.43-1.21l-15.4,35.06-.48,0-15.42-35.45c-.52,2.74-1,5.09-1.39,7.44-1.48,8.21-2.93,16.43-4.44,24.64-.08.43-.58,1.11-.9,1.12-2.51.09-5,.05-7.83.05,3.85-19.69,7.66-39.15,11.46-58.61Z" transform="translate(0)"/><path class="cls-2" d="M115.93,300c6,13.9,12,27.81,18.23,42.09l18.38-42h.53c3.81,19.46,7.62,38.92,11.47,58.63-2.84,0-5.36.07-7.87-.07-.42,0-1-.89-1.14-1.45-.88-4.62-1.66-9.27-2.48-13.9-1-5.79-2-11.59-3.11-17.76l-15.79,35.9L118.73,326l-.33,0c-.52,2.79-1.06,5.57-1.56,8.35-1.37,7.67-2.72,15.34-4.12,23-.09.49-.61,1.27-1,1.29-2.51.11-5,.06-7.82.06,3.85-19.68,7.64-39.11,11.44-58.55Z" transform="translate(0)"/><path class="cls-2" d="M598.72,341.9v-2c0-11.41,0-22.82,0-34.23,0-1.68.52-2.17,2.1-2.06a36.36,36.36,0,0,0,4.55,0c1.5-.09,2,.41,2,2-.07,8.37,0,16.75,0,25.13v30.92l-.5.22-39.94-41.63v38.35h-8.16V299.8Z" transform="translate(0)"/><path class="cls-2" d="M654.42,303.77c-.74.79-1.17,1.28-1.62,1.73-7.25,7.22-14.48,14.46-21.77,21.64-1,1-1.24,1.62-.19,2.85,7.49,8.9,14.89,17.88,22.32,26.83.41.5.78,1,1.42,1.86-3.86,0-7.32.05-10.78-.06-.52,0-1.09-.71-1.5-1.2q-8.88-10.94-17.71-21.89c-.28-.34-.58-.66-.88-1a3.42,3.42,0,0,0-1.85,3.32c.09,6.24,0,12.48,0,18.72v2h-8.34v-1.8c0-17,0-34.06,0-51.1,0-1.64.46-2.21,2.08-2.07a25.73,25.73,0,0,0,4.21,0c1.56-.11,2.15.34,2.12,2-.11,5.9,0,11.81,0,17.71V325l.38.3c1-1.05,1.9-2.12,2.9-3.14,5.66-5.78,11.35-11.54,17-17.35a3.67,3.67,0,0,1,3-1.21c2.36.06,4.72,0,7.09,0C652.81,303.62,653.4,303.7,654.42,303.77Z" transform="translate(0)"/><path class="cls-2" d="M262.22,324.72c0,2.3-.07,4.26,0,6.22.06,1.3-.48,1.66-1.67,1.65-4.27,0-8.54,0-12.81,0-1.74,0-3.49.07-5.23,0-1.37-.08-1.73.5-1.72,1.78.05,4.88.08,9.77,0,14.66,0,1.56.59,1.88,2,1.86,5.9-.05,11.8,0,17.7,0,2.35,0,2.36,0,2.36,2.3,0,1.47.07,2.93-.06,4.38,0,.42-.64,1.12-1,1.12-9.72.06-19.43.05-29.37.05,0-.68-.1-1.27-.1-1.86,0-17.08,0-34.17,0-51.25,0-1.59.49-2,2-2q13.24.07,26.47,0c1.59,0,2.27.44,2.11,2.1a23.7,23.7,0,0,0,0,4c.12,1.45-.49,1.78-1.84,1.77-6.13-.06-12.26,0-18.38-.06-1.37,0-1.88.34-1.84,1.77q.13,4.89,0,9.78c0,1.43.47,1.79,1.84,1.77,5.84-.07,11.69,0,17.53,0Z" transform="translate(0)"/><path class="cls-2" d="M346.52,346.13c0,3,.07,5.93-.07,8.89,0,.56-.85,1.27-1.47,1.58-9.5,4.79-19,4.7-28.07-.86-9.93-6.11-14.74-15.31-14-26.94.83-12.37,9.57-22.19,21.79-25.29a28.35,28.35,0,0,1,20.15,1.93,2.56,2.56,0,0,1,1.67,2.73c-.11,2.62,0,5.25,0,8.42-6.5-5.69-13.48-7.84-21.45-5.18a20.31,20.31,0,0,0-10.49,8.33c-5.41,8.06-3.84,18.77,1.86,25.35a19.48,19.48,0,0,0,14.61,7c5.87.18,10.7-2.44,15-6.19Z" transform="translate(0)"/><path class="cls-2" d="M43.17,316.31a20.39,20.39,0,0,0-17.63-5.79,19.36,19.36,0,0,0-12,6.87,21.17,21.17,0,0,0-.07,27.52A19.29,19.29,0,0,0,28.11,352c5.88.21,10.72-2.38,15.25-6.31a11.33,11.33,0,0,1,.22,1.51c0,2.36-.06,4.72,0,7.08a2.23,2.23,0,0,1-1.48,2.32,28.85,28.85,0,0,1-41.6-20c-3-15.76,6.85-30.24,22.8-33.5a28.06,28.06,0,0,1,18.82,2.37,2.22,2.22,0,0,1,1.46,2.32c-.09,2.73,0,5.47,0,8.21Z" transform="translate(0)"/><path class="cls-2" d="M446.79,358.61H422.26v-1.87c0-17,0-34.06,0-51.09,0-1.65.47-2.21,2.08-2.07,1.34.12,2.7,0,4.05,0,2.23,0,2.23,0,2.23,2.18q0,19.65,0,39.29c0,1.41.06,2.82,0,4.22-.07,1.18.37,1.57,1.54,1.56,4.21-.05,8.43.05,12.64-.05,1.62,0,2.2.44,2.07,2.08C446.68,354.73,446.79,356.58,446.79,358.61Z" transform="translate(0)"/><path class="cls-2" d="M360.61,358.58h-8.23c-.06-.77-.15-1.48-.15-2.2q0-25.22,0-50.42c0-2.34,0-2.35,2.32-2.35,1.57,0,3.14,0,4.72,0,1,0,1.49.34,1.49,1.47q0,26.22,0,52.45A9.82,9.82,0,0,1,360.61,358.58Z" transform="translate(0)"/><path class="cls-2" d="M74.84,302.51c-16.65,0-29.16,13.73-28.77,28.75-.46,13.76,11,28.56,28.67,28.71a28.73,28.73,0,1,0,.1-57.46Zm-.3,49.34c-10.68.26-20.64-9.55-20.19-21.41.42-10.95,9.73-20.36,21.13-20.06,10.71.28,19.77,9.75,19.63,21A20.36,20.36,0,0,1,74.54,351.85Z" transform="translate(0)"/><path class="cls-2" d="M501.06,337.54a14.36,14.36,0,0,0-8.22-8.45,3.24,3.24,0,0,1,.33-.51c7.53-8.11,4.43-20.1-6-23.44-5.07-1.62-10.29-1.53-15.51-1.53-2.32,0-2.33,0-2.33,2.34q0,25.2,0,50.42c0,.71.08,1.43.14,2.33,4.22,0,8.31.08,12.4,0a39.47,39.47,0,0,0,7.84-.76C499.73,355.57,504.56,346.81,501.06,337.54Zm-23.25-26.31a48.78,48.78,0,0,1,6.39.78c3.79,1,5.3,3.87,4.87,8.77a6.92,6.92,0,0,1-6.55,6.32c-4.71.51-4.71.51-4.71-4.12Zm15.62,33.5a7.62,7.62,0,0,1-6.79,5.91c-2.81.39-5.68.39-8.74.58V334.49c4.21-.19,8.41-.53,12.19,1.89A7.59,7.59,0,0,1,493.43,344.73Z" transform="translate(0)"/><path class="cls-2" d="M286.35,335.41l1.85-.67A15.89,15.89,0,0,0,298.28,318c-.85-7.55-6.18-13.15-13.58-13.8-5.08-.45-10.2-.38-15.3-.61-1.51-.07-2,.39-2,2,.06,17.09,0,34.17,0,51.26,0,.59.07,1.18.11,1.78h8.25c.05-.78.14-1.5.14-2.21,0-6.18,0-12.36,0-18.55a4.57,4.57,0,0,1,.53-1.42,11.27,11.27,0,0,1,1.36.76,3.34,3.34,0,0,1,.6.81q6.81,9.72,13.65,19.44c.34.47.85,1.16,1.29,1.17,3.11.11,6.23.06,9.79.06Zm-9.29-6.54c-1,.15-1.13-.65-1.13-1.44q0-3.63,0-7.24c0-1.24,0-2.47,0-3.71s0-2.47.06-3.7c0-.46.63-1.26,1-1.27,3.45-.16,6.84.16,9.89,2,2.75,1.67,3.7,4.26,3.46,7.33s-1.35,5.66-4.4,6.55A63.86,63.86,0,0,1,277.06,328.87Z" transform="translate(0)"/><path class="cls-2" d="M528.44,300.05,501.6,358.7c2.84,0,5.25-.08,7.65,0a2,2,0,0,0,2.27-1.47c1.51-3.45,3.13-6.84,4.63-10.29a2.1,2.1,0,0,1,2.25-1.51c6.74.07,13.49.06,20.24,0a2,2,0,0,1,2.13,1.42c1.55,3.55,3.17,7.06,4.82,10.57.23.49.77,1.16,1.19,1.18,2.72.1,5.45.05,8.56.05Zm-8,37.45c2.66-6.11,5.25-12.06,8-18.37,2.77,6.3,5.38,12.26,8.06,18.37Z" transform="translate(0)"/><path class="cls-2" d="M391.64,300.58l-.49,0-26.58,58.1c2.87,0,5.28-.06,7.69,0a1.94,1.94,0,0,0,2.16-1.37c1.52-3.5,3.19-6.93,4.7-10.43a2.09,2.09,0,0,1,2.27-1.46c6.69.05,13.38.06,20.07,0a2.19,2.19,0,0,1,2.35,1.59c1.51,3.5,3.13,7,4.76,10.41.23.49.78,1.16,1.2,1.18,2.72.1,5.45.05,8.54.05Zm-8.2,36.89c2.65-6.11,5.23-12,8-18.34l8.05,18.34Z" transform="translate(0)"/><path class="cls-2" d="M298.61,252.71c-3.85.24-7.69.61-11.54.69-33.39.64-65.23-4.35-90.75-28.29-18.65-17.48-26.78-39.37-25.21-65.17,2.37-38.95,32.9-72.17,75.45-80,15.75-2.9,31.5-2.56,47.29-.73,1.44.17,2.84.67,5.67,1.35-46,11-69.89,39.82-69.35,85.3.53,45,24.21,74.37,68.72,85.83ZM246.83,92.31c-35.76,10.32-52,39.52-51.64,71.27a85.78,85.78,0,0,0,18.21,52.36c8,10.48,17.94,18.27,31.56,22.77-26.92-18.16-39.55-42.93-39.81-74.05C204.88,132.51,220.41,109.24,246.83,92.31Z" transform="translate(0)"/><path class="cls-2" d="M373.58,80.5c35.29-6,68.54-2.84,97.08,20.77,47.65,39.41,37.51,114.33-18.75,140.1A130.32,130.32,0,0,1,399,253.14c-6.95.1-13.9,0-20.84-.06a14.44,14.44,0,0,1-4.87-.89c44-12.33,67.84-41.39,68.21-86.47C441.89,120.3,418.43,91.36,373.58,80.5ZM424,91.67c62.85,36.28,50.35,121.1,2.21,147.76,6.84-3.33,14-6.46,19.85-11.14,27.19-21.65,38-63.18,25.06-95.38C462.44,111.26,446,98.27,424,91.67Z" transform="translate(0)"/><path class="cls-2" d="M310.12,34.89C318,41,325,46.15,331.62,51.7c1.1.92,1,3.61,1,5.48q.07,94.77,0,189.56c0,1.6-.19,3.21-.33,5.46-6.84,0-13.45.1-20-.14-.69,0-1.83-2.08-1.88-3.22-.23-5.63-.19-11.27-.19-16.91q0-89.43-.05-178.88Z" transform="translate(0)"/><path class="cls-2" d="M361.53,252h-22v-5.86c0-61.81.16-123.61-.22-185.42,0-6.81,1.71-11,7.3-14.47,4.95-3.09,9.43-6.92,15-11.05Z" transform="translate(0)"/></svg>