<svg id="Layer_1" data-name="Layer 1" xmlns="http://www.w3.org/2000/svg" viewBox="0 0 92 20.79"><defs><style>.cls-1{fill:#fff;}.cls-2{fill:#0a66ac;}</style></defs><title>combanklogo3</title><path class="cls-1" d="M92-.75H6.25a2.43,2.43,0,0,0-.65.09,3.31,3.31,0,0,0-2,1.72A6.12,6.12,0,0,0,3,2.92Q2.3,6.1,1.63,9.28.89,12.87.14,16.45A4.21,4.21,0,0,0,0,18a2.26,2.26,0,0,0,1.43,1.73A4.32,4.32,0,0,0,3.22,20H91.71c.33,0,.29,0,.29-.29V-.75Z" transform="translate(0 0.75)"/><path class="cls-2" d="M92-.75v20.5c0,.31,0,.29-.29.29H3.22a4.32,4.32,0,0,1-1.75-.32A2.26,2.26,0,0,1,0,18a4.21,4.21,0,0,1,.1-1.54q.75-3.58,1.49-7.17Q2.31,6.1,3,2.92a6.12,6.12,0,0,1,.59-1.86A3.31,3.31,0,0,1,5.6-.66a2.43,2.43,0,0,1,.65-.09H92ZM38.57,6.67h-.06l-1.16,5.94c.28,0,.54,0,.79,0,0,0,.09-.07.1-.12.15-.83.3-1.66.44-2.5,0-.23.09-.47.15-.75l1.56,3.59h0L42,9.29a.54.54,0,0,1,0,.12c.11.6.21,1.21.32,1.81.07.42.14.83.22,1.24,0,.06.06.15.09.15.27,0,.53,0,.82,0L42.33,6.68h0l-1.87,4.27Zm-6.47,0-.06,0-1.16,5.93c.28,0,.54,0,.79,0,0,0,.09-.09.1-.13l.42-2.34.15-.84h0l1.56,3.6,1.6-3.64c.11.62.22,1.21.32,1.8s.16.94.25,1.41a.21.21,0,0,0,.12.15c.25,0,.51,0,.79,0L35.86,6.68h0l-1.87,4.26Zm48.95,4.25L77,6.65v6h.83V8.72l4.05,4.22,0,0V7.24c0-.16,0-.21-.2-.2h-.47c-.16,0-.21,0-.21.2,0,1.16,0,2.32,0,3.47ZM25,9.84a2.89,2.89,0,0,0,2.91,2.91,2.91,2.91,0,1,0,0-5.82A2.89,2.89,0,0,0,25,9.84Zm-15,3v0a3.21,3.21,0,0,1-2.64-3.3A3.09,3.09,0,0,1,10,6.23a.91.91,0,0,0-.22-.05A6.1,6.1,0,0,0,8,6.2,3.43,3.43,0,0,0,5.1,9.28a3,3,0,0,0,1,2.5,4.67,4.67,0,0,0,3.49,1.09Zm2.88-6.62A3.08,3.08,0,0,1,15.49,9.5a3.25,3.25,0,0,1-2.62,3.33l.19,0h.8a5,5,0,0,0,2-.45A3.2,3.2,0,0,0,16.61,7,4.4,4.4,0,0,0,12.88,6.23Zm55.06,6.39c.43,0,.84,0,1.26,0a4.23,4.23,0,0,0,.79-.08,1.49,1.49,0,0,0,1.15-2.06,1.47,1.47,0,0,0-.83-.86s0,0,0,0a1.42,1.42,0,0,0-.61-2.38A5.17,5.17,0,0,0,68.16,7c-.23,0-.24,0-.24.24v5.11A2.15,2.15,0,0,0,67.94,12.62Zm-16.86,0-1.71-2.36.19-.07a1.59,1.59,0,0,0,1-1.69,1.49,1.49,0,0,0-1.37-1.4c-.52,0-1,0-1.55-.06-.16,0-.21,0-.21.2,0,1.73,0,3.46,0,5.19a1.09,1.09,0,0,0,0,.18h.83a1.64,1.64,0,0,0,0-.22V10.51s0-.1,0-.14l.14.07s0,.06.06.08l1.39,2s.08.11.13.12C50.4,12.63,50.72,12.62,51.08,12.62ZM86.69,7.05h-.94a.35.35,0,0,0-.3.12L83.73,8.92l-.3.32,0,0V9c0-.6,0-1.2,0-1.8,0-.17-.06-.22-.21-.2h-.43c-.17,0-.21,0-.21.21v5.36h.85v-.2c0-.63,0-1.27,0-1.9a.36.36,0,0,1,.19-.34l.09.1,1.8,2.22s.09.12.15.13c.35,0,.7,0,1.09,0l-.14-.19c-.76-.9-1.51-1.81-2.27-2.72-.1-.12-.08-.18,0-.29.74-.72,1.47-1.46,2.21-2.19Zm-10,5.57L73.92,6.68,71.2,12.62H72a.22.22,0,0,0,.24-.15l.46-1.05a.23.23,0,0,1,.23-.15h2a.2.2,0,0,1,.22.14c.16.36.32.72.49,1.08a.23.23,0,0,0,.12.12C76.06,12.63,76.33,12.62,76.65,12.62Zm-19.34,0h.77a.2.2,0,0,0,.22-.14c.16-.36.33-.71.48-1.06a.22.22,0,0,1,.23-.15h2a.22.22,0,0,1,.23.16c.16.36.32.71.49,1.06a.23.23,0,0,0,.12.12c.27,0,.55,0,.86,0l-2.7-5.89h0ZM46.93,9.18h-2c-.13,0-.19,0-.18-.18q0-.5,0-1c0-.14.05-.18.18-.18h1.87c.13,0,.2,0,.18-.18a2.8,2.8,0,0,1,0-.41c0-.17-.05-.22-.21-.22H44.1c-.16,0-.21,0-.21.2,0,1.73,0,3.46,0,5.19a1.28,1.28,0,0,0,0,.19h3s.09-.07.1-.12,0-.29,0-.44,0-.23-.24-.23H45c-.14,0-.21,0-.2-.19,0-.5,0-1,0-1.49,0-.13,0-.18.17-.18h1.83c.12,0,.18,0,.17-.17S46.93,9.41,46.93,9.18Zm8.54,2.17,0,0a2.19,2.19,0,0,1-1.52.63,2,2,0,0,1-1.48-.71,2.16,2.16,0,0,1-.19-2.57,2,2,0,0,1,1.06-.84,2.12,2.12,0,0,1,2.18.52c0-.32,0-.58,0-.85a.26.26,0,0,0-.17-.28,2.88,2.88,0,0,0-2-.19,2.88,2.88,0,0,0-.8,5.29,2.75,2.75,0,0,0,2.85.09.29.29,0,0,0,.15-.16C55.48,12,55.47,11.65,55.47,11.35Zm-30.75-3,0,0c0-.28,0-.55,0-.83a.22.22,0,0,0-.15-.24,3,3,0,0,0-4.22,3.16,2.94,2.94,0,0,0,4.22,2c.1-.06.16-.12.15-.24s0-.48,0-.72a1.25,1.25,0,0,0,0-.15,2.2,2.2,0,0,1-1.55.64,2,2,0,0,1-1.49-.72,2.15,2.15,0,0,1,0-2.8,2,2,0,0,1,1.22-.69A2,2,0,0,1,24.72,8.33ZM10.44,4.47v7.58c0,.21,0,.43,0,.65,0,0,0,.12.07.12h.77a1.7,1.7,0,0,0,0-.21V5.33c0-.07,0-.17,0-.21Zm2,8.35V4.49c-.21.15-.38.3-.57.42a.58.58,0,0,0-.28.56c0,2.37,0,4.75,0,7.12v.23Zm53.23-.21c0-.2,0-.39,0-.57s0-.22-.21-.22H64.15c-.12,0-.16,0-.15-.16s0-.28,0-.43v-4C64,7,64,7,63.77,7h-.41c-.16,0-.21,0-.21.2,0,1.73,0,3.46,0,5.19v.18Zm-8.74,0a.43.43,0,0,0,0-.11V7.19c0-.12-.05-.15-.15-.15h-.48c-.24,0-.24,0-.24.24v5.11a1.8,1.8,0,0,0,0,.22Z" transform="translate(0 0.75)"/><path class="cls-1" d="M38.57,6.67l1.84,4.27,1.87-4.27h0l1.16,5.94c-.29,0-.55,0-.82,0,0,0-.08-.09-.09-.15-.08-.41-.15-.82-.22-1.24-.11-.6-.21-1.21-.32-1.81a.54.54,0,0,0,0-.12l-1.56,3.55h0L38.83,9.25c-.06.28-.1.52-.15.75-.14.84-.29,1.67-.44,2.5,0,.05-.06.12-.1.12-.25,0-.51,0-.79,0l1.16-5.94Z" transform="translate(0 0.75)"/><path class="cls-1" d="M32.1,6.67l1.84,4.27,1.87-4.26h0L37,12.62c-.28,0-.54,0-.79,0a.21.21,0,0,1-.12-.15c-.09-.47-.17-.94-.25-1.41s-.21-1.18-.32-1.8l-1.6,3.64L32.38,9.3h0l-.15.84-.42,2.34s-.06.12-.1.13c-.25,0-.51,0-.79,0L32,6.69Z" transform="translate(0 0.75)"/><path class="cls-1" d="M81.05,10.92v-.21c0-1.15,0-2.31,0-3.47,0-.17,0-.22.21-.2h.47c.15,0,.2,0,.2.2v5.68l0,0L77.82,8.72v3.89H77v-6Z" transform="translate(0 0.75)"/><path class="cls-1" d="M25,9.84a2.92,2.92,0,0,1,5.84,0,2.93,2.93,0,0,1-2.93,2.92A2.89,2.89,0,0,1,25,9.84Zm2.89,2.09A2.06,2.06,0,0,0,30,9.85a2.1,2.1,0,0,0-2-2.13,2.13,2.13,0,0,0-2.14,2A2.1,2.1,0,0,0,27.9,11.93Z" transform="translate(0 0.75)"/><path class="cls-1" d="M10,12.85l-.45,0a4.67,4.67,0,0,1-3.49-1.09,3,3,0,0,1-1-2.5A3.43,3.43,0,0,1,8,6.2a6.1,6.1,0,0,1,1.81,0,.91.91,0,0,1,.22.05A3.09,3.09,0,0,0,7.37,9.51,3.21,3.21,0,0,0,10,12.81ZM8,6.68A2.68,2.68,0,0,0,6,9.42a3.34,3.34,0,0,0,.7,2,2.47,2.47,0,0,0,1.21.88A3.29,3.29,0,0,1,6.4,9.46,3.13,3.13,0,0,1,8,6.68Z" transform="translate(0 0.75)"/><path class="cls-1" d="M12.88,6.23A4.4,4.4,0,0,1,16.61,7a3.2,3.2,0,0,1-.72,5.39,5,5,0,0,1-2,.45h-.8l-.19,0A3.25,3.25,0,0,0,15.49,9.5,3.08,3.08,0,0,0,12.88,6.23Zm1.94.43a3.32,3.32,0,0,1,.08,5.68,3.74,3.74,0,0,0,.76-.43,3.3,3.3,0,0,0,1-3.67A2.66,2.66,0,0,0,14.82,6.66Z" transform="translate(0 0.75)"/><path class="cls-1" d="M67.94,12.62a2.15,2.15,0,0,1,0-.23V7.28c0-.24,0-.24.24-.24a5.17,5.17,0,0,1,1.57.15,1.42,1.42,0,0,1,.61,2.38s0,0,0,0a1.47,1.47,0,0,1,.83.86A1.49,1.49,0,0,1,70,12.54a4.23,4.23,0,0,1-.79.08C68.78,12.63,68.37,12.62,67.94,12.62Zm.86-.75c.31,0,.6,0,.88-.06A.79.79,0,0,0,70,10.36a2,2,0,0,0-1.23-.19Zm0-4.06V9c0,.47,0,.47.47.42a.7.7,0,0,0,.67-.64c0-.5-.11-.79-.49-.89A6.08,6.08,0,0,0,68.79,7.81Z" transform="translate(0 0.75)"/><path class="cls-1" d="M51.08,12.62c-.36,0-.68,0-1,0-.05,0-.1-.08-.13-.12l-1.39-2s0-.06-.06-.08l-.14-.07s0,.09,0,.14v1.88a1.64,1.64,0,0,1,0,.22h-.83a1.09,1.09,0,0,1,0-.18c0-1.73,0-3.46,0-5.19,0-.16,0-.21.21-.2.51,0,1,0,1.55.06a1.49,1.49,0,0,1,1.37,1.4,1.59,1.59,0,0,1-1,1.69l-.19.07Zm-2.76-3.9v.73c0,.08,0,.16.11.15a6.76,6.76,0,0,0,.9-.15.67.67,0,0,0,.45-.66A.75.75,0,0,0,49.43,8a1.77,1.77,0,0,0-1-.2s-.09.08-.1.13C48.31,8.22,48.32,8.47,48.32,8.72Z" transform="translate(0 0.75)"/><path class="cls-1" d="M86.69,7.05l-.16.18c-.74.73-1.47,1.47-2.21,2.19-.1.11-.12.17,0,.29.76.91,1.51,1.82,2.27,2.72l.14.19c-.39,0-.74,0-1.09,0-.06,0-.11-.08-.15-.13l-1.8-2.22-.09-.1a.36.36,0,0,0-.19.34c0,.63,0,1.27,0,1.9v.2h-.85V7.25c0-.17,0-.23.21-.21h.43c.15,0,.21,0,.21.2,0,.6,0,1.2,0,1.8v.17l0,0,.3-.32,1.72-1.76a.35.35,0,0,1,.3-.12h.94Z" transform="translate(0 0.75)"/><path class="cls-1" d="M76.65,12.62c-.32,0-.59,0-.87,0a.23.23,0,0,1-.12-.12c-.17-.36-.33-.72-.49-1.08a.2.2,0,0,0-.22-.14h-2a.23.23,0,0,0-.23.15l-.46,1.05a.22.22,0,0,1-.24.15H71.2l2.72-5.94Zm-1.91-2.15-.82-1.86-.81,1.86Z" transform="translate(0 0.75)"/><path class="cls-1" d="M57.31,12.62,60,6.73h0l2.7,5.89c-.31,0-.59,0-.86,0a.23.23,0,0,1-.12-.12c-.17-.35-.33-.7-.49-1.06a.22.22,0,0,0-.23-.16H59a.22.22,0,0,0-.23.15c-.15.35-.32.7-.48,1.06a.2.2,0,0,1-.22.14Zm3.53-2.15L60,8.61l-.81,1.86Z" transform="translate(0 0.75)"/><path class="cls-1" d="M46.93,9.18c0,.23,0,.43,0,.63s0,.17-.17.17H44.93c-.14,0-.17,0-.17.18,0,.5,0,1,0,1.49,0,.16.06.19.2.19h1.79c.24,0,.24,0,.24.23s0,.3,0,.44-.07.12-.1.12h-3a1.28,1.28,0,0,1,0-.19c0-1.73,0-3.46,0-5.19,0-.16,0-.21.21-.2h2.68c.16,0,.23,0,.21.22a2.8,2.8,0,0,0,0,.41c0,.14-.05.18-.18.18H44.94c-.13,0-.19,0-.18.18q0,.49,0,1c0,.15.05.18.18.18h2Z" transform="translate(0 0.75)"/><path class="cls-1" d="M55.47,11.35c0,.3,0,.6,0,.9a.29.29,0,0,1-.15.16,2.75,2.75,0,0,1-2.85-.09A2.88,2.88,0,0,1,53.27,7a2.88,2.88,0,0,1,2,.19.26.26,0,0,1,.17.28c0,.27,0,.53,0,.85a2.12,2.12,0,0,0-2.18-.52,2,2,0,0,0-1.06.84,2.16,2.16,0,0,0,.19,2.57,2,2,0,0,0,1.48.71,2.19,2.19,0,0,0,1.52-.63Z" transform="translate(0 0.75)"/><path class="cls-1" d="M24.72,8.33a2,2,0,0,0-1.79-.59,2,2,0,0,0-1.22.69,2.15,2.15,0,0,0,0,2.8,2,2,0,0,0,1.49.72,2.2,2.2,0,0,0,1.55-.64,1.25,1.25,0,0,1,0,.15c0,.24,0,.48,0,.72s-.05.18-.15.24a2.94,2.94,0,0,1-4.22-2,3,3,0,0,1,4.22-3.16.22.22,0,0,1,.15.24c0,.28,0,.55,0,.83Z" transform="translate(0 0.75)"/><path class="cls-1" d="M10.44,4.47l.83.65s0,.14,0,.21v7.29a1.7,1.7,0,0,1,0,.21h-.77s-.07-.08-.07-.12c0-.22,0-.44,0-.65V4.47Z" transform="translate(0 0.75)"/><path class="cls-1" d="M12.41,12.82h-.84v-.23c0-2.37,0-4.75,0-7.12a.58.58,0,0,1,.28-.56c.19-.12.36-.27.57-.42Z" transform="translate(0 0.75)"/><path class="cls-1" d="M65.64,12.61H63.15v-.18c0-1.73,0-3.46,0-5.19,0-.16.05-.22.21-.2h.41C64,7,64,7,64,7.26v4c0,.15,0,.29,0,.43s0,.16.15.16h1.28c.17,0,.23,0,.21.22S65.64,12.41,65.64,12.61Z" transform="translate(0 0.75)"/><path class="cls-1" d="M56.9,12.61h-.83a1.8,1.8,0,0,1,0-.22V7.28c0-.24,0-.24.24-.24h.48c.1,0,.15,0,.15.15V12.5A.43.43,0,0,1,56.9,12.61Z" transform="translate(0 0.75)"/><path class="cls-2" d="M27.9,11.93a2.1,2.1,0,0,1-2-2.17,2.13,2.13,0,0,1,2.14-2,2.1,2.1,0,0,1,2,2.13A2.06,2.06,0,0,1,27.9,11.93Z" transform="translate(0 0.75)"/><path class="cls-2" d="M8,6.68A3.13,3.13,0,0,0,6.4,9.46a3.29,3.29,0,0,0,1.53,2.85,2.47,2.47,0,0,1-1.21-.88,3.34,3.34,0,0,1-.7-2A2.68,2.68,0,0,1,8,6.68Z" transform="translate(0 0.75)"/><path class="cls-2" d="M14.82,6.66a2.66,2.66,0,0,1,1.81,1.58,3.3,3.3,0,0,1-1,3.67,3.74,3.74,0,0,1-.76.43A3.32,3.32,0,0,0,14.82,6.66Z" transform="translate(0 0.75)"/><path class="cls-2" d="M68.8,11.87v-1.7a2,2,0,0,1,1.23.19.79.79,0,0,1-.35,1.45C69.4,11.85,69.11,11.85,68.8,11.87Z" transform="translate(0 0.75)"/><path class="cls-2" d="M68.79,7.81a6.08,6.08,0,0,1,.65.08c.38.1.53.39.49.89a.7.7,0,0,1-.67.64c-.47.05-.47.05-.47-.42Z" transform="translate(0 0.75)"/><path class="cls-2" d="M48.32,8.72c0-.25,0-.5,0-.75,0,0,.07-.13.1-.13a1.77,1.77,0,0,1,1,.2.75.75,0,0,1,.35.75.67.67,0,0,1-.45.66,6.76,6.76,0,0,1-.9.15c-.1,0-.11-.07-.11-.15Z" transform="translate(0 0.75)"/><path class="cls-2" d="M74.74,10.47H73.11l.81-1.86Z" transform="translate(0 0.75)"/><path class="cls-2" d="M60.84,10.47H59.22L60,8.61Z" transform="translate(0 0.75)"/></svg>