<svg width="24" height="24" viewBox="0 0 24 24" fill="none" xmlns="http://www.w3.org/2000/svg">
<path d="M22.103 5.01709L17.1998 0.201416C17.0684 0.0723267 16.8915 0 16.7071 0H4.31104C2.8645 0 1.6875 1.17682 1.6875 2.62354V21.3765C1.6875 22.823 2.86432 24 4.31104 24H19.6899C21.1364 24 22.3134 22.8232 22.3134 21.3765V5.5188C22.3134 5.33002 22.2376 5.14929 22.103 5.01709V5.01709ZM17.4102 2.37927L19.8909 4.81567H17.6338C17.5106 4.81567 17.4102 4.71533 17.4102 4.5921V2.37927ZM19.6899 22.5938H4.31104C3.63995 22.5938 3.09375 22.0477 3.09375 21.3765V2.62354C3.09375 1.95227 3.63977 1.40625 4.31104 1.40625H16.0042V4.5921C16.0042 5.49078 16.7353 6.22192 17.634 6.22192H20.9072V21.3765C20.9072 22.0477 20.3611 22.5938 19.6899 22.5938V22.5938Z" fill="black"/>
<path d="M13.503 5H6.49699C6.22248 5 6 5.22383 6 5.5C6 5.77617 6.22248 6 6.49699 6H13.503C13.7775 6 14 5.77617 14 5.5C14 5.22383 13.7775 5 13.503 5Z" fill="black"/>
<g clip-path="url(#clip0)">
<path d="M12.3765 20H11.6234C11.0143 20 10.5187 19.5044 10.5187 18.8953V18.6405C10.2598 18.5578 10.0082 18.4534 9.76645 18.3283L9.58589 18.5088C9.14857 18.9467 8.44805 18.9339 8.02343 18.5087L7.49114 17.9764C7.06577 17.5515 7.05354 16.8512 7.49128 16.4139L7.6717 16.2335C7.54662 15.9918 7.4422 15.7403 7.35945 15.4813H7.10468C6.49559 15.4813 6 14.9857 6 14.3766V13.6234C6 13.0143 6.49559 12.5188 7.1047 12.5188H7.35947C7.44223 12.2598 7.54664 12.0082 7.67173 11.7665L7.49116 11.5859C7.05368 11.1489 7.06575 10.4486 7.4913 10.0235L8.02364 9.49116C8.44924 9.06498 9.1496 9.05434 9.58608 9.4913L9.76648 9.6717C10.0082 9.54664 10.2598 9.4422 10.5188 9.35945V9.10468C10.5188 8.49556 11.0143 8 11.6235 8H12.3766C12.9857 8 13.4813 8.49556 13.4813 9.10468V9.35947C13.7402 9.4422 13.9918 9.54664 14.2335 9.67173L14.4141 9.49116C14.8514 9.0533 15.5519 9.06615 15.9765 9.49133L16.5088 10.0236C16.9342 10.4485 16.9464 11.1488 16.5087 11.5861L16.3283 11.7665C16.4534 12.0082 16.5578 12.2597 16.6405 12.5188H16.8953C17.5044 12.5188 18 13.0143 18 13.6234V14.3766C18 14.9857 17.5044 15.4813 16.8953 15.4813H16.6405C16.5578 15.7402 16.4534 15.9918 16.3283 16.2335L16.5088 16.4141C16.9463 16.8511 16.9343 17.5515 16.5087 17.9765L15.9764 18.5089C15.5508 18.935 14.8504 18.9457 14.4139 18.5087L14.2335 18.3283C13.9918 18.4534 13.7402 18.5578 13.4813 18.6406V18.8954C13.4813 19.5044 12.9857 20 12.3765 20V20ZM9.88399 17.5899C10.2198 17.7885 10.5812 17.9385 10.9582 18.0358C11.1134 18.0759 11.2219 18.2159 11.2219 18.3762V18.8953C11.2219 19.1167 11.402 19.2969 11.6235 19.2969H12.3766C12.598 19.2969 12.7781 19.1167 12.7781 18.8953V18.3762C12.7781 18.2159 12.8866 18.0759 13.0419 18.0358C13.4188 17.9385 13.7802 17.7885 14.116 17.5899C14.2542 17.5082 14.4301 17.5304 14.5436 17.6439L14.9113 18.0117C15.0698 18.1704 15.3244 18.1667 15.479 18.0118L16.0117 17.4792C16.166 17.3251 16.1711 17.0705 16.0118 16.9114L15.644 16.5436C15.5305 16.4301 15.5083 16.2541 15.59 16.116C15.7886 15.7802 15.9386 15.4188 16.0358 15.0418C16.0759 14.8866 16.2159 14.7781 16.3763 14.7781H16.8953C17.1167 14.7781 17.2969 14.598 17.2969 14.3766V13.6235C17.2969 13.402 17.1167 13.2219 16.8953 13.2219H16.3763C16.2159 13.2219 16.0759 13.1134 16.0358 12.9582C15.9386 12.5812 15.7885 12.2198 15.59 11.884C15.5083 11.7459 15.5305 11.57 15.644 11.4565L16.0117 11.0888C16.1707 10.93 16.1665 10.6755 16.0118 10.521L15.4792 9.98839C15.3248 9.8338 15.0702 9.82927 14.9115 9.98825L14.5436 10.3561C14.4301 10.4696 14.2542 10.4918 14.1161 10.4101C13.7803 10.2115 13.4189 10.0615 13.0419 9.96423C12.8866 9.92417 12.7782 9.78416 12.7782 9.62382V9.10468C12.7782 8.88327 12.598 8.70312 12.3766 8.70312H11.6235C11.4021 8.70312 11.2219 8.88327 11.2219 9.10468V9.62377C11.2219 9.78411 11.1134 9.92413 10.9582 9.96418C10.5812 10.0615 10.2198 10.2115 9.88402 10.4101C9.74583 10.4918 9.56993 10.4695 9.45645 10.3561L9.08876 9.98834C8.93023 9.82962 8.67563 9.8333 8.52101 9.98818L7.98834 10.5208C7.83408 10.6749 7.82892 10.9295 7.9882 11.0886L8.35605 11.4564C8.46954 11.5699 8.49176 11.7459 8.41008 11.884C8.21149 12.2198 8.06149 12.5812 7.9642 12.9582C7.92412 13.1134 7.78411 13.2219 7.6238 13.2219H7.1047C6.88329 13.2219 6.70312 13.402 6.70312 13.6234V14.3766C6.70312 14.598 6.88329 14.7781 7.1047 14.7781H7.62377C7.78411 14.7781 7.9241 14.8866 7.96418 15.0418C8.06147 15.4188 8.21149 15.7802 8.41005 16.116C8.49173 16.2541 8.46952 16.43 8.35603 16.5435L7.98832 16.9112C7.82937 17.07 7.83352 17.3245 7.98818 17.479L8.5208 18.0116C8.67518 18.1662 8.9298 18.1708 9.08857 18.0118L9.4564 17.6439C9.54002 17.5603 9.714 17.4894 9.88399 17.5899V17.5899Z" fill="black"/>
<path d="M12 16.6108C10.5603 16.6108 9.3891 15.4395 9.3891 13.9999C9.3891 12.5602 10.5603 11.3889 12 11.3889C13.4397 11.3889 14.611 12.5602 14.611 13.9999C14.611 15.4395 13.4397 16.6108 12 16.6108V16.6108ZM12 12.092C10.948 12.092 10.0922 12.9479 10.0922 13.9999C10.0922 15.0518 10.9481 15.9077 12 15.9077C13.052 15.9077 13.9078 15.0518 13.9078 13.9999C13.9078 12.9479 13.052 12.092 12 12.092V12.092Z" fill="black"/>
</g>
<defs>
<clipPath id="clip0">
<rect width="12" height="12" fill="white" transform="translate(6 8)"/>
</clipPath>
</defs>
</svg>
