<svg width="24" height="24" viewBox="0 0 24 24" fill="none" xmlns="http://www.w3.org/2000/svg">
<path d="M22.103 5.01709L17.1998 0.201416C17.0684 0.0723267 16.8915 0 16.7071 0H4.31104C2.8645 0 1.6875 1.17682 1.6875 2.62354V21.3765C1.6875 22.823 2.86432 24 4.31104 24H19.6899C21.1364 24 22.3134 22.8232 22.3134 21.3765V5.5188C22.3134 5.33002 22.2376 5.14929 22.103 5.01709ZM17.4102 2.37927L19.8909 4.81567H17.6338C17.5106 4.81567 17.4102 4.71533 17.4102 4.5921V2.37927ZM19.6899 22.5938H4.31104C3.63995 22.5938 3.09375 22.0477 3.09375 21.3765V2.62354C3.09375 1.95227 3.63977 1.40625 4.31104 1.40625H16.0042V4.5921C16.0042 5.49078 16.7353 6.22192 17.634 6.22192H20.9072V21.3765C20.9072 22.0477 20.3611 22.5938 19.6899 22.5938Z" fill="black"/>
<path d="M16.8818 9.15625H6.96991C6.58154 9.15625 6.26678 9.47101 6.26678 9.85938C6.26678 10.2477 6.58154 10.5625 6.96991 10.5625H16.8818C17.2701 10.5625 17.5849 10.2477 17.5849 9.85938C17.5849 9.47101 17.2701 9.15625 16.8818 9.15625Z" fill="black"/>
<path d="M6.96991 14.375H15.0518C15.4402 14.375 15.7549 14.0602 15.7549 13.6719C15.7549 13.2835 15.4402 12.9688 15.0518 12.9688H6.96991C6.58154 12.9688 6.26678 13.2835 6.26678 13.6719C6.26678 14.0602 6.58154 14.375 6.96991 14.375Z" fill="black"/>
<path d="M16.0269 16.7812H6.96991C6.58154 16.7812 6.26678 17.096 6.26678 17.4844C6.26678 17.8727 6.58154 18.1875 6.96991 18.1875H16.0269C16.415 18.1875 16.73 17.8727 16.73 17.4844C16.73 17.096 16.415 16.7812 16.0269 16.7812Z" fill="black"/>
</svg>
