<svg width="24" height="24" viewBox="0 0 24 24" fill="none" xmlns="http://www.w3.org/2000/svg">
<g clip-path="url(#clip0)">
<path d="M23.7206 11.1324C23.3562 10.5439 22.7117 10.1927 21.9965 10.1927H20.2112V6.91791C20.2112 6.12744 19.5443 5.48456 18.7247 5.48456H9.98529C9.97247 5.48456 9.96387 5.4809 9.96039 5.4787L8.3963 3.29114C8.1189 2.90332 7.6615 2.67188 7.17261 2.67188H1.48645C0.666687 2.67188 0 3.31494 0 4.10522V19.8153C0 20.6243 0.682983 21.2825 1.52271 21.2825H19.2116C19.4872 21.2825 19.7252 21.1234 19.8404 20.8925L19.8409 20.8927L23.8048 12.9315C24.0923 12.3545 24.0606 11.6819 23.7206 11.1324ZM1.48645 4.07812H7.17261C7.21472 4.07812 7.24329 4.09662 7.25226 4.10925L8.81873 6.29993C9.08313 6.6698 9.51929 6.89081 9.98529 6.89081H18.7247C18.7738 6.89081 18.7987 6.91388 18.8049 6.92212V10.1927H6.07965C5.29047 10.1927 4.57269 10.6375 4.25098 11.326L1.40625 17.4137V4.10944C1.41248 4.1012 1.43738 4.07812 1.48645 4.07812ZM22.546 12.3047L18.7762 19.8761H1.8078L5.52502 11.9214C5.61511 11.7286 5.83813 11.599 6.07965 11.599H21.9965C22.2211 11.599 22.4187 11.7014 22.5249 11.8727C22.5846 11.9692 22.6366 12.1225 22.546 12.3047Z" fill="black"/>
</g>
<defs>
<clipPath id="clip0">
<rect width="24" height="24" fill="white"/>
</clipPath>
</defs>
</svg>
